<svg width="86" height="51" viewBox="0 0 86 51" fill="none" xmlns="http://www.w3.org/2000/svg">
<g clip-path="url(#clip0_2029_6842)">
<path d="M86 30.5166H0V50.9796H86V30.5166Z" fill="#5D6164"/>
<path d="M8.90395 36.54H7.87354V44.4003H8.90395V36.54Z" fill="white"/>
<path d="M11.4669 40.2783C11.4669 39.6838 11.4405 39.2214 11.4141 38.7591H12.3124L12.3652 39.6838H12.3916C12.6691 39.1554 13.3296 38.627 14.2543 38.627C15.0337 38.627 16.2491 39.0893 16.2491 41.0313V44.3999H15.2187V41.1501C15.2187 40.2386 14.8884 39.4724 13.924 39.4724C13.2503 39.4724 12.7219 39.948 12.5369 40.516C12.4841 40.6482 12.4709 40.8199 12.4709 40.9916V44.3867H11.4537V40.265L11.4669 40.2783Z" fill="white"/>
<path d="M19.9608 37.3984V38.7591H21.4272V39.5385H19.9608V42.5901C19.9608 43.2903 20.159 43.6866 20.7403 43.6866C21.0177 43.6866 21.1894 43.6602 21.3347 43.6073L21.3744 44.4C21.1762 44.4792 20.8592 44.5453 20.4628 44.5453C19.9873 44.5453 19.6042 44.3868 19.3532 44.1093C19.0625 43.8055 18.9569 43.3035 18.9569 42.643V39.565H18.085V38.7855H18.9569V37.7419L19.9608 37.4249V37.3984Z" fill="white"/>
<path d="M27.8738 41.7715C27.887 41.6658 27.9003 41.5073 27.9003 41.2959C27.9003 40.2655 27.4247 38.6406 25.5752 38.6406C23.9239 38.6406 22.9199 39.9749 22.9199 41.679C22.9199 43.3832 23.9635 44.5325 25.6941 44.5325C26.5924 44.5325 27.2133 44.3343 27.57 44.1758L27.3851 43.4492C27.0019 43.6078 26.5528 43.7399 25.8262 43.7399C24.7958 43.7399 23.9107 43.1718 23.8843 41.7847H27.8474L27.8738 41.7715ZM23.9239 41.0317C24.0032 40.3184 24.4523 39.3672 25.496 39.3672C26.6453 39.3672 26.9227 40.3844 26.9095 41.0317H23.9107H23.9239Z" fill="white"/>
<path d="M30.0142 40.5165C30.0142 39.856 30.001 39.2879 29.9746 38.7595H30.8729L30.9125 39.8692H30.9522C31.2164 39.1162 31.8373 38.6406 32.5242 38.6406C32.6299 38.6406 32.7092 38.6406 32.8149 38.667V39.6314C32.7092 39.605 32.6035 39.5918 32.4714 39.5918C31.7448 39.5918 31.2296 40.1466 31.0975 40.9128C31.0711 41.0581 31.0447 41.2167 31.0447 41.3884V44.4004H30.0274V40.5165H30.0142Z" fill="white"/>
<path d="M34.7169 40.2783C34.7169 39.6838 34.7037 39.2214 34.6772 38.7591H35.5888L35.6416 39.6838H35.668C35.9454 39.1554 36.5928 38.627 37.5307 38.627C38.3101 38.627 39.5123 39.0893 39.5123 41.0313V44.3999H38.4951V41.1501C38.4951 40.2386 38.1516 39.4724 37.1872 39.4724C36.5135 39.4724 35.9851 39.948 35.8001 40.516C35.7605 40.6482 35.7341 40.8199 35.7341 40.9916V44.3867H34.7037V40.265L34.7169 40.2783Z" fill="white"/>
<path d="M45.9856 40.9388C45.9856 39.8027 45.5628 38.627 43.8455 38.627C43.1321 38.627 42.4584 38.8251 41.9828 39.1157L42.2074 39.8027C42.6037 39.5385 43.1585 39.3799 43.6737 39.3799C44.8363 39.3799 44.9551 40.2254 44.9551 40.6878V40.8067C42.7754 40.7935 41.5601 41.5465 41.5601 42.9071C41.5601 43.713 42.1413 44.5188 43.2774 44.5188C44.0833 44.5188 44.6909 44.1225 44.9948 43.6866H45.0344L45.1269 44.3999H46.0516C45.9856 44.0168 45.9591 43.528 45.9591 43.0525V40.9388H45.9856ZM44.9948 42.4976C44.9948 42.5901 44.9816 42.709 44.9419 42.8147C44.7834 43.2902 44.3078 43.7658 43.568 43.7658C43.0528 43.7658 42.6037 43.462 42.6037 42.7882C42.6037 41.6918 43.8719 41.4936 44.9948 41.52V42.4976V42.4976Z" fill="white"/>
<path d="M49.6581 37.3984V38.7591H51.1244V39.5385H49.6581V42.5901C49.6581 43.2903 49.8562 43.6866 50.4375 43.6866C50.7149 43.6866 50.8867 43.6602 51.032 43.6073L51.0848 44.4C50.8867 44.4792 50.5696 44.5453 50.1733 44.5453C49.6977 44.5453 49.3146 44.3868 49.0636 44.1093C48.7862 43.8055 48.6673 43.3035 48.6673 42.643V39.565H47.7954V38.7855H48.6673V37.7419L49.6713 37.4249L49.6581 37.3984Z" fill="white"/>
<path d="M53.6078 37.7156C53.2247 37.7156 52.9604 37.4117 52.9604 37.0551C52.9604 36.6984 53.2379 36.3945 53.621 36.3945C54.0041 36.3945 54.2815 36.6852 54.2815 37.0551C54.2815 37.4117 54.0173 37.7156 53.621 37.7156H53.6078ZM53.119 38.7592H54.1362V44.4001H53.119V38.7592Z" fill="white"/>
<path d="M58.9845 44.532C60.332 44.532 61.7719 43.6073 61.7719 41.52C61.7719 39.8027 60.6755 38.627 59.0638 38.627C57.4521 38.627 56.2632 39.7366 56.2632 41.6257C56.2632 43.4091 57.4521 44.532 58.9845 44.532V44.532ZM58.9977 43.7658C58.007 43.7658 57.2936 42.8279 57.2936 41.5993C57.2936 40.5293 57.822 39.4064 59.0242 39.4064C60.2263 39.4064 60.7283 40.6085 60.7283 41.5597C60.7283 42.8411 59.9885 43.7658 59.011 43.7658H58.9977Z" fill="white"/>
<path d="M63.899 40.2783C63.899 39.6838 63.8726 39.2214 63.8594 38.7591H64.7577L64.8105 39.6838H64.837C65.1144 39.1554 65.7749 38.627 66.6996 38.627C67.479 38.627 68.6812 39.0893 68.6812 41.0313V44.3999H67.664V41.1501C67.664 40.2386 67.3205 39.4724 66.3694 39.4724C65.6956 39.4724 65.1672 39.948 64.9823 40.516C64.9426 40.6482 64.9162 40.8199 64.9162 40.9916V44.3867H63.899V40.265V40.2783Z" fill="white"/>
<path d="M75.1676 40.9388C75.1676 39.8027 74.7449 38.627 73.0275 38.627C72.3142 38.627 71.6272 38.8251 71.1649 39.1157L71.4027 39.8027C71.799 39.5385 72.3406 39.3799 72.869 39.3799C74.0183 39.3799 74.1504 40.2254 74.1504 40.6878V40.8067C71.9707 40.7935 70.7686 41.5465 70.7686 42.9071C70.7686 43.713 71.3498 44.5188 72.4859 44.5188C73.2917 44.5188 73.8994 44.1225 74.2165 43.6866H74.2429L74.3354 44.3999H75.2601C75.1941 44.0168 75.1808 43.528 75.1808 43.0525V40.9388H75.1676ZM74.1769 42.4976C74.1769 42.5901 74.1636 42.709 74.124 42.8147C73.9523 43.2902 73.4899 43.7658 72.7501 43.7658C72.2349 43.7658 71.7858 43.462 71.7858 42.7882C71.7858 41.6918 73.054 41.4936 74.1636 41.52V42.4976H74.1769Z" fill="white"/>
<path d="M78.6681 36.1174H77.6509V44.4004H78.6681V36.1174Z" fill="white"/>
<path d="M3.39498 5.07282C3.39498 1.62489 3.14398 1.38711 0.607578 1.20216V0.475586H14.4918C14.5314 1.01721 14.6767 3.32904 14.8484 5.11245L14.0558 5.20493C13.7388 3.61967 13.3821 2.80062 12.9065 2.28542C12.3913 1.757 11.3477 1.53242 9.41895 1.53242H7.00143C6.11633 1.53242 6.05028 1.59847 6.05028 2.50999V9.73611H9.26042C11.9818 9.73611 12.0742 9.55116 12.3913 7.1997H13.1971V13.4747H12.3913C12.2328 12.3121 12.1403 11.678 11.7308 11.3214C11.3212 10.9779 10.6211 10.9118 9.26042 10.9118H6.05028V16.5395C6.05028 18.3493 6.23523 19.2873 6.84291 19.6704C7.43738 20.0535 8.58669 20.0535 10.0795 20.0535C11.8893 20.0535 13.3689 19.8949 14.069 19.1287C14.6106 18.5475 15.1126 17.4774 15.5882 16.0243L16.3808 16.1168C16.2223 17.0019 15.5222 20.2384 15.2712 21.0971H0.290527V20.3573C3.14398 20.1724 3.39498 19.9478 3.39498 16.4999V5.07282V5.07282Z" fill="#BC121A"/>
<path d="M21.4141 0.475586V1.20216C23.8844 1.38711 24.1486 1.61168 24.1486 5.07282V16.4999C24.1486 19.9478 23.8976 20.1724 21.1631 20.3573V21.0971H28.4553C35.9192 21.0971 41.9035 17.702 41.9035 9.86821C41.9035 6.9487 40.7278 4.63688 39.1425 3.1441C37.1081 1.24179 34.0697 0.475586 30.2915 0.475586H21.4141V0.475586ZM26.8039 2.47036C26.8039 1.84947 26.8964 1.65132 27.0814 1.59847C27.3324 1.506 27.7815 1.40032 29.3668 1.40032C31.9032 1.40032 33.713 1.78342 34.9548 2.44394C38.1253 4.09525 38.8255 7.49033 38.8255 10.6873C38.8255 15.443 36.2494 20.0535 29.5913 20.0535C28.5213 20.0535 27.7551 19.8553 27.3324 19.5118C26.8832 19.1287 26.8039 18.4946 26.8039 17.0415V2.47036Z" fill="#BC121A"/>
<path d="M63.1196 5.82586C62.2345 1.79667 59.6057 1.04368 56.7786 1.04368C51.8643 1.04368 48.7203 4.41234 48.7203 10.3967C48.7203 15.2185 51.0057 20.5159 57.2806 20.5159C58.4167 20.5159 59.5 20.3838 60.253 20.0931C60.9531 19.8025 61.1777 19.5779 61.1777 18.0587V15.2317C61.1777 13.0784 61.0456 12.8538 57.5977 12.5896V11.863H65.7485V12.5896C63.9783 12.8802 63.8462 12.9727 63.8462 15.2317V17.3982C63.8462 18.5343 63.8726 19.5515 64.0444 20.2781C62.076 20.8197 59.5132 21.5463 57.1221 21.5463C50.4244 21.5463 45.5762 17.2001 45.5762 10.9779C45.5762 3.80466 51.3095 -0.0263672 57.307 -0.0263672C60.068 -0.0263672 62.261 0.502051 63.3706 0.79268C63.4631 1.87594 63.6216 3.51403 63.8726 5.70697L63.1064 5.79944L63.1196 5.82586Z" fill="#BC121A"/>
<path d="M72.3798 5.07282C72.3798 1.61168 72.1288 1.38711 69.5924 1.20216V0.475586H83.4898C83.5162 1.01721 83.6747 3.32904 83.8333 5.11245L83.0406 5.20493C82.7236 3.61967 82.3669 2.80062 81.8913 2.28542C81.3893 1.757 80.3457 1.53242 78.4038 1.53242H75.9995C75.1144 1.53242 75.0483 1.59847 75.0483 2.50999V9.73611H78.2453C80.9798 9.73611 81.0723 9.55116 81.3893 7.1997H82.182V13.4747H81.3893C81.2308 12.3121 81.1383 11.678 80.7156 11.3214C80.3061 10.9779 79.6059 10.9118 78.2453 10.9118H75.0483V16.5395C75.0483 18.3493 75.2333 19.2873 75.841 19.6704C76.4486 20.0535 77.5847 20.0535 79.0775 20.0535C80.8873 20.0535 82.3669 19.8949 83.0803 19.1287C83.6219 18.5475 84.1239 17.4774 84.5995 16.0243L85.3921 16.1168C85.2336 17.0019 84.5334 20.2384 84.2824 21.0971H69.2886V20.3573C72.142 20.1724 72.393 19.9478 72.393 16.4999V5.07282H72.3798Z" fill="#BC121A"/>
</g>
<defs>
<clipPath id="clip0_2029_6842">
<rect width="86" height="50.9791" fill="white"/>
</clipPath>
</defs>
</svg>
